<svg preserveAspectRatio="none" width="100%" height="100%" overflow="visible" style="display: block;" viewBox="0 0 20 20" xmlns="http://www.w3.org/2000/svg" fill="none">
<g id="&#230;&#156;&#139;&#229;&#143;&#139;&#229;&#156;&#136; &#228;&#184;&#180;&#230;&#151;&#182;">
<path id="&#229;&#155;&#190;&#230;&#160;&#135;&#233;&#162;&#156;&#232;&#137;&#178;" fill-rule="evenodd" clip-rule="evenodd" d="M10 0C4.5 0 0 4.5 0 10C0 15.5 4.5 20 10 20C15.5 20 20 15.5 20 10C20 4.5 15.5 0 10 0ZM18.0001 6.30004L14.2001 10V10V2.30004C15.8001 3.20004 17.2001 4.60004 18.0001 6.30004ZM12.1 12.1C11.6 12.7 10.8 13 9.99998 13C9.19998 13 8.39998 12.7 7.89998 12.1V12.1V12.1C7.29998 11.6 6.99998 10.8 6.99998 9.99999C6.99998 8.29998 8.29998 6.99998 9.99998 6.99998C11.7 6.99998 13 8.29998 13 9.99999C13 10.8 12.7 11.6 12.1 12.1V12.1V12.1ZM13 1.70004V7.00004V7.00004V7.00004L7.49996 1.60004C8.29996 1.40004 9.09996 1.20004 9.99996 1.20004C11.1 1.20004 12.1 1.40004 13 1.70004ZM6.29995 2L9.99995 5.8V5.8H2.29995C3.19995 4.2 4.59995 2.8 6.29995 2ZM1.69991 6.99998H6.99991V6.99998V6.99998L1.49991 12.5C1.29991 11.7 1.09991 10.9 1.09991 9.99999C1.19991 8.89998 1.39991 7.89998 1.69991 6.99998ZM2.00007 13.7L5.80007 9.99999V9.99999V17.7C4.20007 16.8 2.80007 15.4 2.00007 13.7ZM6.99998 18.3V13V13V13L12.5 18.5C11.7 18.7 10.9 18.9 9.99998 18.9C8.89998 18.8 7.89998 18.6 6.99998 18.3ZM13.6999 18L9.99992 14.2V14.2H17.6999C16.7999 15.8 15.3999 17.2 13.6999 18ZM18.3 13H13V13V13L18.5 7.49997C18.7 8.29997 18.9 9.09997 18.9 9.99997C18.8 11.1 18.6 12.1 18.3 13Z" fill-opacity="0.9" fill="currentColor"/>
</g>
</svg>
