<svg preserveAspectRatio="none" width="100%" height="100%" overflow="visible" style="display: block;" viewBox="0 0 16.2171 16.3172" xmlns="http://www.w3.org/2000/svg" fill="none">
<g id="Icons/Tint Color/Black">
<path id="&#229;&#155;&#190;&#230;&#160;&#135;&#233;&#162;&#156;&#232;&#137;&#178;" fill-rule="evenodd" clip-rule="evenodd" d="M11.4528 12.4014C10.2428 13.4001 8.69145 14 7 14C3.134 14 0 10.866 0 7C0 3.134 3.134 0 7 0C10.866 0 14 3.134 14 7C14 8.74251 13.3633 10.3363 12.3099 11.5614L16.0706 15.3222C16.2659 15.5175 16.2659 15.834 16.0706 16.0293L15.9292 16.1707C15.734 16.366 15.4174 16.366 15.2221 16.1707L11.4528 12.4014ZM12.8 7.00005C12.8 10.2033 10.2033 12.8 7.00002 12.8C3.79676 12.8 1.20002 10.2033 1.20002 7.00005C1.20002 3.79679 3.79676 1.20005 7.00002 1.20005C10.2033 1.20005 12.8 3.79679 12.8 7.00005Z" fill-opacity="0.9" fill="currentColor"/>
</g>
</svg>
