<!-- Source: Iconex more_circle.svg (3 dots only, no outer ring) · Figma Community -->
<svg width="24" height="24" viewBox="0 0 24 24" xmlns="http://www.w3.org/2000/svg" fill="none">
  <path d="M7.0498 10.7998C7.74016 10.7998 8.2998 11.3594 8.2998 12.0498C8.2998 12.7402 7.74016 13.2998 7.0498 13.2998C6.35953 13.2997 5.7998 12.7401 5.7998 12.0498C5.7998 11.3595 6.35953 10.7999 7.0498 10.7998Z" fill="currentColor"/>
  <path d="M12.0498 10.7998C12.7402 10.7998 13.2998 11.3594 13.2998 12.0498C13.2998 12.7402 12.7402 13.2998 12.0498 13.2998C11.3595 13.2997 10.7998 12.7401 10.7998 12.0498C10.7998 11.3595 11.3595 10.7999 12.0498 10.7998Z" fill="currentColor"/>
  <path d="M17.0498 10.7998C17.7402 10.7998 18.2998 11.3594 18.2998 12.0498C18.2998 12.7402 17.7402 13.2998 17.0498 13.2998C16.3595 13.2997 15.7998 12.7401 15.7998 12.0498C15.7998 11.3595 16.3595 10.7999 17.0498 10.7998Z" fill="currentColor"/>
</svg>
