<svg preserveAspectRatio="none" width="100%" height="100%" overflow="visible" style="display: block;" viewBox="0 0 22 18" xmlns="http://www.w3.org/2000/svg">
<path id="&#229;&#155;&#190;&#230;&#160;&#135;&#233;&#162;&#156;&#232;&#137;&#178;" fill-rule="evenodd" clip-rule="evenodd" d="M14.1111 1.00178C15.92 1.05984 17.3684 2.5309 17.3684 4.33351V5.75849C17.3684 6.70775 16.8639 8.06905 16.2468 8.79298L15.9424 9.15011C15.4459 9.73246 15.601 10.4737 16.2952 10.8088L21.0618 13.1096C21.58 13.3597 22 14.021 22 14.5962V15.168C22 15.6275 21.6203 16 21.1567 16H20.4832C20.3608 14.8394 19.5814 13.6897 18.5435 13.1834L13.1269 10.5413L13.3146 10.3188C14.2765 9.17857 15 7.20212 15 5.71019V4.00021C15 2.89435 14.6733 1.86441 14.1111 1.00178V1.00178ZM6.83191 9.35014C6.09632 8.47828 5.5 6.8495 5.5 5.70929V3.99958C5.5 1.79067 7.29536 0 9.5 0C11.7091 0 13.5 1.79298 13.5 4.00021V5.71019C13.5 6.8493 12.9009 8.48286 12.1681 9.35157L11.8066 9.78013C11.217 10.479 11.4012 11.3684 12.2255 11.7705L17.8859 14.5316C18.5012 14.8317 19 15.6252 19 16.3155V17.0016C19 17.553 18.5491 18 17.9986 18H1.00143C0.448355 18 0 17.5558 0 17.0016L0 16.3155C0 15.6304 0.498151 14.8319 1.1141 14.5313L6.77445 11.7691C7.59538 11.3685 7.78626 10.4813 7.19345 9.77864L6.83191 9.35014Z" fill="currentColor" />
</svg>
