<svg preserveAspectRatio="none" width="100%" height="100%" overflow="visible" style="display: block;" viewBox="0 0 18.2 16.3309" xmlns="http://www.w3.org/2000/svg">
<g id="icon9">
<path id="&#229;&#155;&#190;&#230;&#160;&#135;&#233;&#162;&#156;&#232;&#137;&#178;" fill-rule="evenodd" clip-rule="evenodd" d="M14.1043 9.09073L13.8684 9.09454C13.155 9.09454 12.7399 8.57125 13.0081 7.96794C13.1917 7.53945 13.606 7.20853 14.0953 7.09984C15.4045 6.78384 16.2939 5.7607 16.2939 4.57123C16.2939 3.12916 14.9171 1.95399 13.1974 1.95399C11.4778 1.95399 10.101 3.12916 10.101 4.57123V11.7597C10.101 14.2916 7.8379 16.3309 5.05048 16.3309C2.26306 16.3309 0 14.2916 0 11.7597C0 9.53964 1.75234 7.64464 4.13994 7.28432H4.33163C4.87169 7.28432 5.2607 7.60762 5.2607 8.06934C5.26093 8.14845 5.25901 8.18501 5.2512 8.23187C5.24067 8.29505 5.22017 8.35552 5.19191 8.41093C5.01978 8.81255 4.57977 9.16026 4.10466 9.27903C2.805 9.59274 1.90607 10.6096 1.90607 11.7597C1.90607 13.2018 3.28288 14.377 5.00256 14.377C6.72223 14.377 8.09904 13.2018 8.09904 11.7597V4.57123C8.09904 2.03932 10.3621 0 13.1495 0C15.9369 0 18.2 2.03932 18.2 4.57123C18.2 6.80309 16.4889 8.67602 14.1043 9.09073Z" fill="currentColor" />
</g>
</svg>
