<svg preserveAspectRatio="none" width="100%" height="100%" overflow="visible" style="display: block;" viewBox="0 0 20 20" xmlns="http://www.w3.org/2000/svg">
<path id="&#229;&#155;&#190;&#230;&#160;&#135;&#233;&#162;&#156;&#232;&#137;&#178;" fill-rule="evenodd" clip-rule="evenodd" d="M12.5 0.315044V6.84315L6.34562 0.688766C7.47759 0.244155 8.71028 0 10 0C10.8632 0 11.701 0.109382 12.5 0.315044ZM14 0.832087V9.53553L18.6155 4.92008C17.55 3.11693 15.9345 1.67732 14 0.832087ZM19.3112 6.34562L13.1569 12.5H19.685C19.8906 11.701 20 10.8632 20 10C20 8.71028 19.7558 7.47759 19.3112 6.34562ZM19.1679 14H10.4645L15.0799 18.6155C16.8831 17.55 18.3227 15.9345 19.1679 14ZM13.6544 19.3112L7.5 13.1569V19.685C8.29905 19.8906 9.13675 20 10 20C11.2897 20 12.5224 19.7558 13.6544 19.3112ZM6 19.1679V10.4645L1.38455 15.0799C2.45003 16.8831 4.06546 18.3227 6 19.1679ZM0.688766 13.6544L6.84315 7.5H0.315044C0.109382 8.29905 0 9.13675 0 10C0 11.2897 0.244155 12.5224 0.688766 13.6544ZM0.832087 6C1.67732 4.06546 3.11693 2.45003 4.92008 1.38455L9.53553 6H0.832087Z" fill="currentColor" />
</svg>
