<svg preserveAspectRatio="none" width="100%" height="100%" overflow="visible" style="display: block;" viewBox="0 0 15.7204 19.9999" xmlns="http://www.w3.org/2000/svg">
<g id="icon16">
<path id="&#229;&#155;&#190;&#230;&#160;&#135;&#233;&#162;&#156;&#232;&#137;&#178;" fill-rule="evenodd" clip-rule="evenodd" d="M2.86019 3.99999C1.75563 3.99999 0.8602 3.10456 0.8602 1.99999C0.8602 0.895428 1.75563 0 2.86019 0C3.96476 0 4.86019 0.895428 4.86019 1.99999C4.86019 3.10456 3.96476 3.99999 2.86019 3.99999ZM1.50009 5.99998H4.22029C5.04872 5.99998 5.72029 6.67155 5.72029 7.49998C5.72029 7.54451 5.7183 7.58902 5.71434 7.63337L4.69153 19.0889C4.64548 19.6046 4.21331 19.9999 3.6955 19.9999H2.02488C1.50707 19.9999 1.0749 19.6046 1.02885 19.0889L0.00603685 7.63337C-0.0676366 6.80823 0.541549 6.0796 1.36669 6.00592C1.41105 6.00196 1.45556 5.99998 1.50009 5.99998ZM12.8602 3.99999C11.7557 3.99999 10.8602 3.10456 10.8602 1.99999C10.8602 0.895428 11.7557 0 12.8602 0C13.9648 0 14.8602 0.895428 14.8602 1.99999C14.8602 3.10456 13.9648 3.99999 12.8602 3.99999ZM11.5002 5.99998H14.2204C15.0488 5.99998 15.7204 6.67155 15.7204 7.49998C15.7204 7.54451 15.7184 7.58902 15.7144 7.63337L14.6916 19.0889C14.6455 19.6046 14.2134 19.9999 13.6956 19.9999H12.025C11.5071 19.9999 11.075 19.6046 11.0289 19.0889L10.0061 7.63337C9.93243 6.80823 10.5416 6.0796 11.3668 6.00592C11.4111 6.00196 11.4556 5.99998 11.5002 5.99998V5.99998Z" fill="currentColor" />
</g>
</svg>
