<svg preserveAspectRatio="none" width="100%" height="100%" overflow="visible" style="display: block;" viewBox="0 0 20 16" xmlns="http://www.w3.org/2000/svg">
<g id="icon19">
<path id="&#229;&#155;&#190;&#230;&#160;&#135;&#233;&#162;&#156;&#232;&#137;&#178;" fill-rule="evenodd" clip-rule="evenodd" d="M2 2.00001H6V0H1C0.447715 0 0 0.447715 0 1V5.00001H2V2.00001ZM18 2.00001H14V0H19C19.5523 0 20 0.447715 20 1V5.00001H18V2.00001ZM6 14H2V11H0V15C0 15.5523 0.447715 16 1 16H6V14ZM18 14H14V16H19C19.5523 16 20 15.5523 20 15V11H18V14ZM10 11.2426L10 11.2427L9.29294 11.9498C9.14649 12.0962 8.96593 12.1877 8.77683 12.2244C8.66763 12.2455 8.55558 12.2483 8.44562 12.2328C8.23821 12.2036 8.03821 12.1093 7.87869 11.9498L7.17158 11.2427L7.1716 11.2426L4.34319 8.41423L5.75741 7.00002L8.58582 9.82843L14.2427 4.17158L15.6569 5.58579L10 11.2426Z" fill="currentColor" />
</g>
</svg>
