<svg preserveAspectRatio="none" width="100%" height="100%" overflow="visible" style="display: block;" viewBox="0 0 20 18" xmlns="http://www.w3.org/2000/svg">
<path id="Symbol" fill-rule="evenodd" clip-rule="evenodd" d="M7.27361 11.3862C7.1833 11.4322 7.08164 11.4594 6.97388 11.4594C6.72373 11.4594 6.50628 11.3189 6.39214 11.1115L6.34865 11.0143L4.52783 6.93909C4.50816 6.89473 4.49597 6.84443 4.49597 6.79555C4.49597 6.60792 4.64528 6.4559 4.82922 6.4559C4.90457 6.4559 4.97299 6.48104 5.02895 6.52343L7.17721 8.0835C7.33372 8.18805 7.52182 8.24965 7.72348 8.24965C7.84343 8.24965 7.95839 8.22705 8.06504 8.18721L18.1681 3.6008C16.3572 1.42331 13.3746 0 9.99972 0C4.47658 0 0 3.80595 0 8.50086C0 11.0621 1.34657 13.3681 3.45494 14.9265C3.6242 15.0494 3.73473 15.2515 3.73473 15.4804C3.73473 15.5561 3.71949 15.6245 3.69955 15.6968C3.5314 16.3377 3.26186 17.3634 3.2494 17.4117C3.22834 17.4917 3.19538 17.5759 3.19538 17.6604C3.19538 17.8477 3.34441 18 3.52918 18C3.60121 18 3.66021 17.9726 3.72143 17.937L5.91069 16.6474C6.07524 16.5505 6.24948 16.4906 6.44173 16.4906C6.54395 16.4906 6.64284 16.5067 6.73564 16.5358C7.757 16.8353 8.85897 17.0017 9.99972 17.0017C15.5226 17.0017 20 13.1958 20 8.50086C20 7.07925 19.587 5.73986 18.8606 4.56211L7.34674 11.343L7.27361 11.3862Z" fill="currentColor" />
</svg>
