<svg preserveAspectRatio="none" width="100%" height="100%" overflow="visible" style="display: block;" viewBox="0 0 20.0001 20" xmlns="http://www.w3.org/2000/svg">
<g id="Group 19">
<path id="&#229;&#155;&#190;&#230;&#160;&#135;&#233;&#162;&#156;&#232;&#137;&#178;" fill-rule="evenodd" clip-rule="evenodd" d="M20.0001 10C20.0001 15.5229 15.5229 20 10.0001 20C4.47718 20 0 15.5229 0 10C0 4.47715 4.47718 0 10.0001 0C15.5229 0 20.0001 4.47715 20.0001 10ZM15.4776 11C15.225 13.8033 12.8691 16 10 16C7.131 16 4.77505 13.8033 4.52243 11H15.4776ZM6.50005 8.5C7.32848 8.5 8.00006 7.82843 8.00006 7C8.00006 6.17158 7.32848 5.5 6.50005 5.5C5.67161 5.5 5.00004 6.17158 5.00004 7C5.00004 7.82843 5.67161 8.5 6.50005 8.5ZM15 7C15 7.82843 14.3285 8.5 13.5 8.5C12.6716 8.5 12 7.82843 12 7C12 6.17158 12.6716 5.5 13.5 5.5C14.3285 5.5 15 6.17158 15 7Z" fill="currentColor" />
</g>
</svg>
