<svg preserveAspectRatio="none" width="100%" height="100%" overflow="visible" style="display: block;" viewBox="0 0 16.6591 16.6234" xmlns="http://www.w3.org/2000/svg">
<g id="common_icons_search">
<path id="&#229;&#155;&#190;&#230;&#160;&#135;&#233;&#162;&#156;&#232;&#137;&#178;" fill-rule="evenodd" clip-rule="evenodd" d="M11.2154 12.5889C10.0429 13.4747 8.58278 14 7 14C3.134 14 0 10.866 0 7C0 3.134 3.134 0 7 0C10.866 0 14 3.134 14 7C14 8.56483 13.4865 10.0097 12.6189 11.1754C12.6366 11.1889 12.6536 11.2037 12.6697 11.2199L16.5126 15.0628C16.7079 15.258 16.7079 15.5746 16.5126 15.7699L15.8055 16.477C15.6103 16.6723 15.2937 16.6723 15.0984 16.477L11.2555 12.6341C11.2411 12.6197 11.2277 12.6046 11.2154 12.5889ZM12.0001 7C12.0001 9.76143 9.7615 12 7.00007 12C4.23864 12 2.00007 9.76143 2.00007 7C2.00007 4.23857 4.23864 2 7.00007 2C9.7615 2 12.0001 4.23857 12.0001 7Z" fill="currentColor" />
</g>
</svg>
