<svg viewBox="0 0 18 21" fill="none" xmlns="http://www.w3.org/2000/svg" aria-hidden="true">
<path fill-rule="evenodd" clip-rule="evenodd" d="M9.10423 2C6.19995 2 3.95462 4.19595 3.95462 6.77444V9.21875C3.95462 9.54052 3.8224 9.8248 3.7535 9.96462C3.66396 10.1463 3.54689 10.339 3.42201 10.5279C3.17043 10.9084 2.83373 11.3536 2.47499 11.8035C2.0147 12.3809 1.91669 13.0494 2.06333 13.5627C2.20264 14.0504 2.56438 14.432 3.18165 14.5344C4.73828 14.7925 6.72836 15 9.10423 15C11.6552 15 13.605 14.7608 15.0149 14.4803C15.5158 14.3806 15.8053 14.078 15.9305 13.6866C16.0643 13.2684 16.0173 12.7009 15.6806 12.1607C15.5188 11.9011 15.3449 11.6358 15.1697 11.3698C15.1518 11.3426 15.1339 11.3154 15.1159 11.2881C14.9608 11.0528 14.8046 10.8158 14.6655 10.5955C14.512 10.3526 14.3628 10.1043 14.2494 9.87759C14.1608 9.70038 14.0001 9.36229 14.0001 9V6.71194C14.0001 4.09322 11.9666 2 9.10423 2ZM1.95462 6.77444C1.95462 2.97465 5.21584 0 9.10423 0C13.0345 0 16.0001 2.95238 16.0001 6.71194V8.90173C16.0085 8.92117 16.0208 8.94809 16.0383 8.98326C16.106 9.1185 16.2121 9.29907 16.3564 9.5274C16.4844 9.73017 16.6295 9.95027 16.7866 10.1887C16.8043 10.2155 16.822 10.2424 16.8399 10.2696C17.0149 10.5353 17.2014 10.8195 17.378 11.1029C17.9971 12.0963 18.1636 13.2698 17.8354 14.2959C17.4986 15.3489 16.6506 16.1941 15.4052 16.4418C13.8617 16.7489 11.781 17 9.10423 17C6.61165 17 4.51199 16.7823 2.85445 16.5074C1.43304 16.2717 0.47993 15.3011 0.140255 14.1121C-0.192101 12.9487 0.066749 11.6159 0.911172 10.5567C1.25636 10.1238 1.55043 9.73229 1.75363 9.42491C1.8518 9.27642 1.91678 9.16546 1.95462 9.09036V6.77444ZM12.7854 18.3808C13.1273 18.8145 13.053 19.4433 12.6193 19.7852C10.5782 21.3948 7.44335 21.4152 5.38008 19.7846C4.94678 19.4421 4.87313 18.8132 5.21558 18.3799C5.55804 17.9466 6.1869 17.873 6.6202 18.2154C7.95086 19.2671 10.0603 19.2561 11.3809 18.2148C11.8146 17.8728 12.4434 17.9471 12.7854 18.3808Z" fill="currentColor"/>
</svg>
